<svg width="275" height="26" viewBox="0 0 275 26" fill="none" xmlns="http://www.w3.org/2000/svg">
<path d="M186 0.397342H193.642C196.912 0.397342 199.386 0.869546 201.066 1.81395C202.745 2.75836 203.585 4.41683 203.585 6.78937C203.585 7.74529 203.434 8.60908 203.132 9.38073C202.84 10.1524 202.415 10.7858 201.855 11.2811C201.295 11.7763 200.612 12.0988 199.806 12.2485V12.4213C200.623 12.594 201.362 12.8935 202.023 13.3196C202.684 13.7342 203.21 14.3446 203.602 15.1508C204.005 15.9455 204.206 17.0051 204.206 18.3296C204.206 19.8614 203.843 21.1743 203.115 22.2684C202.387 23.3626 201.346 24.2033 199.991 24.7907C198.647 25.3666 197.046 25.6545 195.187 25.6545H186V0.397342ZM191.207 10.4H194.23C195.741 10.4 196.788 10.1581 197.371 9.67442C197.953 9.17918 198.244 8.4536 198.244 7.49767C198.244 6.53023 197.897 5.8392 197.203 5.42458C196.52 4.99845 195.434 4.78538 193.944 4.78538H191.207V10.4ZM191.207 14.6498V21.2319H194.599C196.167 21.2319 197.259 20.9209 197.875 20.299C198.49 19.6771 198.798 18.8421 198.798 17.794C198.798 17.1721 198.664 16.625 198.395 16.1528C198.126 15.6806 197.673 15.3121 197.035 15.0472C196.408 14.7823 195.54 14.6498 194.431 14.6498H191.207Z" fill="#797979"/>
<path d="M209.111 25.6545V0.397342H214.317V21.2319H224.277V25.6545H209.111Z" fill="#797979"/>
<path d="M250.848 12.9914C250.848 14.9378 250.613 16.7114 250.142 18.3123C249.672 19.9017 248.956 21.2722 247.993 22.4239C247.041 23.5756 245.832 24.4625 244.365 25.0844C242.898 25.6948 241.162 26 239.158 26C237.154 26 235.418 25.6948 233.951 25.0844C232.485 24.4625 231.27 23.5756 230.307 22.4239C229.355 21.2722 228.644 19.8959 228.174 18.295C227.704 16.6941 227.468 14.9147 227.468 12.9568C227.468 10.3424 227.883 8.06777 228.711 6.13289C229.551 4.18649 230.839 2.67774 232.574 1.60664C234.31 0.535548 236.516 0 239.192 0C241.857 0 244.046 0.535548 245.759 1.60664C247.483 2.67774 248.76 4.18649 249.588 6.13289C250.428 8.07929 250.848 10.3654 250.848 12.9914ZM232.927 12.9914C232.927 14.7535 233.14 16.2738 233.565 17.5522C234.002 18.819 234.679 19.798 235.597 20.489C236.516 21.1685 237.703 21.5083 239.158 21.5083C240.636 21.5083 241.834 21.1685 242.752 20.489C243.671 19.798 244.337 18.819 244.751 17.5522C245.177 16.2738 245.389 14.7535 245.389 12.9914C245.389 10.3424 244.908 8.25781 243.945 6.73754C242.982 5.21728 241.398 4.45714 239.192 4.45714C237.725 4.45714 236.527 4.80266 235.597 5.49369C234.679 6.1732 234.002 7.15216 233.565 8.43056C233.14 9.69745 232.927 11.2177 232.927 12.9914Z" fill="#797979"/>
<path d="M265.259 11.4711H275V24.5661C273.712 25.0038 272.374 25.355 270.986 25.6199C269.597 25.8733 268.024 26 266.266 26C263.825 26 261.754 25.5048 260.052 24.5143C258.35 23.5238 257.057 22.0611 256.172 20.1262C255.288 18.1914 254.845 15.8131 254.845 12.9914C254.845 10.3424 255.338 8.0505 256.323 6.11561C257.32 4.18073 258.77 2.6835 260.673 1.62392C262.588 0.564341 264.923 0.0345515 267.677 0.0345515C268.976 0.0345515 270.258 0.178516 271.523 0.466445C272.789 0.754374 273.936 1.12868 274.966 1.58937L273.236 5.87375C272.486 5.48217 271.63 5.15393 270.667 4.88904C269.704 4.62414 268.696 4.49169 267.644 4.49169C266.132 4.49169 264.816 4.84873 263.697 5.56279C262.588 6.27685 261.726 7.27885 261.11 8.56877C260.505 9.84718 260.203 11.3559 260.203 13.095C260.203 14.742 260.421 16.2047 260.858 17.4831C261.295 18.7499 261.983 19.7462 262.924 20.4718C263.865 21.1858 265.091 21.5429 266.602 21.5429C267.341 21.5429 267.963 21.5083 268.467 21.4392C268.982 21.3586 269.463 21.278 269.911 21.1973V15.9282H265.259V11.4711Z" fill="#797979"/>
<path d="M20.7164 10.5469H20.5757L15.469 25.1472H12.0921L7.00202 10.5552H6.84477L5.67776 25.354H0L1.96984 0.463226H8.26835L13.7806 14.8567L19.3094 0.463226H25.343L27.5777 25.354H21.9082L20.7164 10.5469Z" fill="#212121"/>
<path d="M44.3881 5.44304H35.8218V10.3898H44.0322V15.3778H35.8218V20.3659H44.3881V25.354H30.1523V0.454956H44.3964V5.44304H44.3881Z" fill="#212121"/>
<path d="M61.8085 5.44304H53.2422V10.3898H61.4526V15.3778H53.2422V20.3659H61.8085V25.354H47.5645V0.454956H61.8085V5.44304Z" fill="#212121"/>
<path d="M64.1782 0.454956H81.675V5.44304H75.7572V25.3457H70.0877V5.44304H64.1699V0.454956H64.1782Z" fill="#212121"/>
<path d="M111.834 25.3458H106.164V0.454987H111.834L121.732 15.9569H121.79V0.454987H127.46V25.3458H121.79L111.891 9.84383H111.834V25.3458Z" fill="#212121"/>
<path d="M147.05 2.30794L144.799 6.77488C144.799 6.77488 142.39 5.0791 139.857 5.0791C137.962 5.0791 136.928 5.93112 136.928 7.2712C136.928 8.6361 139.262 9.62048 142.051 10.8117C144.782 11.9615 147.762 14.2694 147.762 17.4707C147.762 23.3191 143.334 25.354 138.55 25.354C132.814 25.354 129.338 22.1114 129.338 22.1114L132.144 17.4459C132.144 17.4459 135.405 20.1922 138.136 20.1922C139.361 20.1922 141.678 20.0764 141.678 17.7851C141.678 16.0066 139.046 15.2124 136.141 13.7565C133.195 12.2924 131.473 10.0258 131.473 7.46974C131.473 2.90353 135.504 2.21048e-05 139.46 2.21048e-05C143.905 -0.00825 147.05 2.30794 147.05 2.30794Z" fill="#212121"/>
<path d="M156.468 25.3458H150.799V0.454987H156.468V10.3898H164.497V0.454987H170.166V25.3458H164.497V15.3779H156.468V25.3458Z" fill="#212121"/>
<path d="M180 25.3458H174.33V0.454987H180V25.3458Z" fill="#212121"/>
<path d="M91.9612 15.0553L89.6934 19.9027H94.2538L91.9612 15.0553Z" fill="#F3703A"/>
<path d="M91.9621 0.463257L80.1348 25.3458H103.773L91.9621 0.463257ZM91.9621 11.6223L96.5142 21.2014H87.4099L91.9621 11.6223Z" fill="#212121"/>
</svg>
