<?xml version="1.0" encoding="UTF-8"?>
<svg id="Layer_1" data-name="Layer 1" xmlns="http://www.w3.org/2000/svg" viewBox="0 0 2174.81 306.46">
  <defs>
    <style>
      .cls-1 {
        fill: #f3703a;
      }

      .cls-2 {
        fill: #212121;
      }
    </style>
  </defs>
  <g>
    <g>
      <path class="cls-2" d="M250.32,127.59h-1.7l-61.73,176.44h-40.83L84.58,127.59h-1.95l-14.09,178.87H0L23.82,5.59H99.89l66.59,174.01L233.31,5.59h72.91l26.98,300.87h-68.54l-14.34-178.87Z"/>
      <path class="cls-2" d="M536.33,65.86h-103.53v59.78h99.15v60.27h-99.15v60.27h103.53v60.27h-172.07V5.59h172.07v60.27Z"/>
      <path class="cls-2" d="M746.8,65.86h-103.53v59.78h99.15v60.27h-99.15v60.27h103.53v60.27h-172.07V5.59h172.07v60.27Z"/>
      <path class="cls-2" d="M775.37,5.59h211.44v60.27h-71.45v240.6h-68.53V65.86h-71.45V5.59Z"/>
    </g>
    <g>
      <path class="cls-2" d="M1351.15,306.46h-68.54V5.59h68.54l119.57,187.38h.73V5.59h68.54V306.46h-68.54l-119.57-187.38h-.73v187.38Z"/>
      <path class="cls-2" d="M1776.64,27.95l-27.23,53.98s-29.14-20.54-59.71-20.54c-22.93,0-35.35,10.27-35.35,26.51s28.19,28.43,61.87,42.76c32.96,13.85,69.03,41.8,69.03,80.5,0,70.7-53.51,95.31-111.31,95.31-69.27,0-111.31-39.17-111.31-39.17l33.92-56.37s39.42,33.2,72.38,33.2c14.81,0,42.76-1.43,42.76-29.14,0-21.5-31.77-31.05-66.88-48.73-35.59-17.68-56.37-45.15-56.37-75.96,0-55.18,48.73-90.29,96.5-90.29,53.74,0,91.72,27.95,91.72,27.95Z"/>
      <path class="cls-2" d="M1890.49,306.46h-68.54V5.59h68.54V125.65h96.97V5.59h68.54V306.46h-68.54v-120.54h-96.97v120.54Z"/>
      <path class="cls-2" d="M2174.81,306.46h-68.54V5.59h68.54V306.46Z"/>
    </g>
  </g>
  <g>
    <polygon class="cls-1" points="1111.13 182.07 1083.69 240.63 1138.77 240.63 1111.13 182.07"/>
    <path class="cls-2" d="M1111.13,5.63l-142.89,300.83h285.64L1111.13,5.63Zm-.08,134.87l55.02,115.78h-110.04l55.02-115.78Z"/>
  </g>
</svg>