<svg width="99" height="34" viewBox="0 0 99 34" fill="none" xmlns="http://www.w3.org/2000/svg">
<path d="M20.8959 25.8545V31.5212" stroke="white" stroke-miterlimit="10"/>
<path d="M13.8125 31.5212V25.8545" stroke="white" stroke-miterlimit="10"/>
<path d="M8.85425 31.5205H25.8542" stroke="white" stroke-miterlimit="10" stroke-linecap="square"/>
<path d="M30.1042 25.8542H4.60421C3.85276 25.8542 3.13209 25.5557 2.60074 25.0243C2.06939 24.4929 1.77087 23.7723 1.77087 23.0208V6.02083C1.77087 5.26939 2.06939 4.54872 2.60074 4.01736C3.13209 3.48601 3.85276 3.1875 4.60421 3.1875H30.1042C30.8557 3.1875 31.5763 3.48601 32.1077 4.01736C32.639 4.54872 32.9375 5.26939 32.9375 6.02083V23.0208C32.9375 23.7723 32.639 24.4929 32.1077 25.0243C31.5763 25.5557 30.8557 25.8542 30.1042 25.8542Z" stroke="white" stroke-miterlimit="10" stroke-linecap="square"/>
<path d="M1.77087 20.1875H32.9375" stroke="white" stroke-miterlimit="10" stroke-linecap="square"/>
<path d="M19.725 12.25C19.475 10.275 17.775 8.75 15.75 8.75C13.675 8.75 11.95 10.325 11.775 12.375C10.875 12.675 10.25 13.525 10.25 14.5C10.25 15.75 11.25 16.75 12.5 16.75H19.5C20.75 16.75 21.75 15.75 21.75 14.5C21.75 13.325 20.85 12.375 19.725 12.25Z" fill="#4FBCE7"/>
<g clip-path="url(#clip0_1963_788)">
<path d="M25.2888 7.53884L22.6667 10.1609L21.7113 9.20551C21.6327 9.12961 21.5274 9.08761 21.4182 9.08856C21.3089 9.08951 21.2044 9.13333 21.1272 9.21058C21.0499 9.28783 21.0061 9.39234 21.0051 9.50159C21.0042 9.61084 21.0462 9.71609 21.1221 9.79467L22.3721 11.0447C22.4502 11.1228 22.5562 11.1667 22.6667 11.1667C22.7772 11.1667 22.8831 11.1228 22.9613 11.0447L25.8779 8.128C25.9538 8.04942 25.9958 7.94417 25.9949 7.83492C25.9939 7.72567 25.9501 7.62117 25.8728 7.54391C25.7956 7.46666 25.6911 7.42284 25.5818 7.42189C25.4726 7.42094 25.3673 7.46294 25.2888 7.53884Z" fill="#4FBCE7"/>
</g>
<path d="M49.3239 13.9999H47.3639L42.9259 7.29387V13.9999H40.9659V4.21387H42.9259L47.3639 10.9339V4.21387H49.3239V13.9999Z" fill="#4FBCE7"/>
<path d="M58.4709 9.95387C58.4709 10.2339 58.4522 10.4859 58.4149 10.7099H52.7449C52.7915 11.2699 52.9875 11.7085 53.3329 12.0259C53.6782 12.3432 54.1029 12.5019 54.6069 12.5019C55.3349 12.5019 55.8529 12.1892 56.1609 11.5639H58.2749C58.0509 12.3105 57.6215 12.9265 56.9869 13.4119C56.3522 13.8879 55.5729 14.1259 54.6489 14.1259C53.9022 14.1259 53.2302 13.9625 52.6329 13.6359C52.0449 13.2999 51.5829 12.8285 51.2469 12.2219C50.9202 11.6152 50.7569 10.9152 50.7569 10.1219C50.7569 9.3192 50.9202 8.61453 51.2469 8.00787C51.5735 7.4012 52.0309 6.93453 52.6189 6.60787C53.2069 6.2812 53.8835 6.11787 54.6489 6.11787C55.3862 6.11787 56.0442 6.27653 56.6229 6.59387C57.2109 6.9112 57.6635 7.36387 57.9809 7.95187C58.3075 8.53053 58.4709 9.19787 58.4709 9.95387ZM56.4409 9.39387C56.4315 8.88987 56.2495 8.48853 55.8949 8.18987C55.5402 7.88187 55.1062 7.72787 54.5929 7.72787C54.1075 7.72787 53.6969 7.8772 53.3609 8.17587C53.0342 8.4652 52.8335 8.8712 52.7589 9.39387H56.4409Z" fill="#4FBCE7"/>
<path d="M62.1835 7.85387V11.6059C62.1835 11.8672 62.2442 12.0585 62.3655 12.1799C62.4962 12.2919 62.7108 12.3479 63.0095 12.3479H63.9195V13.9999H62.6875C61.0355 13.9999 60.2095 13.1972 60.2095 11.5919V7.85387H59.2855V6.24387H60.2095V4.32587H62.1835V6.24387H63.9195V7.85387H62.1835Z" fill="#4FBCE7"/>
<path d="M70.6672 12.3479H75.0632V13.9999H68.3992V12.4879L72.7672 5.87987H68.3992V4.22787H75.0632V5.73987L70.6672 12.3479Z" fill="#4FBCE7"/>
<path d="M83.9416 9.95387C83.9416 10.2339 83.9229 10.4859 83.8856 10.7099H78.2156C78.2622 11.2699 78.4582 11.7085 78.8036 12.0259C79.1489 12.3432 79.5736 12.5019 80.0776 12.5019C80.8056 12.5019 81.3236 12.1892 81.6316 11.5639H83.7456C83.5216 12.3105 83.0922 12.9265 82.4576 13.4119C81.8229 13.8879 81.0436 14.1259 80.1196 14.1259C79.3729 14.1259 78.7009 13.9625 78.1036 13.6359C77.5156 13.2999 77.0536 12.8285 76.7176 12.2219C76.3909 11.6152 76.2276 10.9152 76.2276 10.1219C76.2276 9.3192 76.3909 8.61453 76.7176 8.00787C77.0442 7.4012 77.5016 6.93453 78.0896 6.60787C78.6776 6.2812 79.3542 6.11787 80.1196 6.11787C80.8569 6.11787 81.5149 6.27653 82.0936 6.59387C82.6816 6.9112 83.1342 7.36387 83.4516 7.95187C83.7782 8.53053 83.9416 9.19787 83.9416 9.95387ZM81.9116 9.39387C81.9022 8.88987 81.7202 8.48853 81.3656 8.18987C81.0109 7.88187 80.5769 7.72787 80.0636 7.72787C79.5782 7.72787 79.1676 7.8772 78.8316 8.17587C78.5049 8.4652 78.3042 8.8712 78.2296 9.39387H81.9116Z" fill="#4FBCE7"/>
<path d="M87.3322 7.44787C87.5842 7.0372 87.9109 6.7152 88.3122 6.48187C88.7229 6.24853 89.1895 6.13187 89.7122 6.13187V8.18987H89.1942C88.5782 8.18987 88.1115 8.33453 87.7942 8.62387C87.4862 8.9132 87.3322 9.4172 87.3322 10.1359V13.9999H85.3722V6.24387H87.3322V7.44787Z" fill="#4FBCE7"/>
<path d="M94.4763 14.1259C93.7297 14.1259 93.0577 13.9625 92.4604 13.6359C91.863 13.2999 91.3917 12.8285 91.0463 12.2219C90.7104 11.6152 90.5423 10.9152 90.5423 10.1219C90.5423 9.32853 90.715 8.62853 91.0603 8.02187C91.415 7.4152 91.8957 6.94853 92.5023 6.62187C93.109 6.28587 93.7857 6.11787 94.5323 6.11787C95.279 6.11787 95.9557 6.28587 96.5623 6.62187C97.169 6.94853 97.645 7.4152 97.9903 8.02187C98.345 8.62853 98.5224 9.32853 98.5224 10.1219C98.5224 10.9152 98.3403 11.6152 97.9763 12.2219C97.6217 12.8285 97.1363 13.2999 96.5203 13.6359C95.9137 13.9625 95.2323 14.1259 94.4763 14.1259ZM94.4763 12.4179C94.831 12.4179 95.1623 12.3339 95.4703 12.1659C95.7877 11.9885 96.0397 11.7272 96.2263 11.3819C96.413 11.0365 96.5063 10.6165 96.5063 10.1219C96.5063 9.38453 96.3103 8.81987 95.9184 8.42787C95.5357 8.02653 95.0644 7.82587 94.5043 7.82587C93.9443 7.82587 93.473 8.02653 93.0903 8.42787C92.717 8.81987 92.5303 9.38453 92.5303 10.1219C92.5303 10.8592 92.7123 11.4285 93.0763 11.8299C93.4497 12.2219 93.9163 12.4179 94.4763 12.4179Z" fill="#4FBCE7"/>
<path d="M48.6 18.0696H49.56L47.46 24.9996H46.44L44.88 19.3996L43.21 24.9996L42.2 25.0096L40.24 18.0696H41.2L42.74 23.9596L44.42 18.0696H45.42L46.97 23.9396L48.6 18.0696Z" fill="white"/>
<path d="M52.8547 25.0896C52.068 25.0896 51.428 24.8296 50.9347 24.3096C50.4413 23.7896 50.1947 23.103 50.1947 22.2496C50.1947 21.3963 50.4447 20.713 50.9447 20.1996C51.4447 19.6796 52.0913 19.4196 52.8847 19.4196C53.6847 19.4196 54.3247 19.6663 54.8047 20.1596C55.2913 20.6463 55.5347 21.2696 55.5347 22.0296C55.5347 22.223 55.5213 22.403 55.4947 22.5696H51.1247C51.1513 23.1163 51.3213 23.5496 51.6347 23.8696C51.9547 24.183 52.3613 24.3396 52.8547 24.3396C53.228 24.3396 53.5413 24.2563 53.7947 24.0896C54.0547 23.923 54.2447 23.703 54.3647 23.4296H55.3447C55.1713 23.9096 54.8713 24.3063 54.4447 24.6196C54.0247 24.933 53.4947 25.0896 52.8547 25.0896ZM54.5847 21.9096C54.578 21.383 54.4113 20.963 54.0847 20.6496C53.758 20.3296 53.3513 20.1696 52.8647 20.1696C52.3847 20.1696 51.9847 20.3263 51.6647 20.6396C51.3447 20.9463 51.168 21.3696 51.1347 21.9096H54.5847Z" fill="white"/>
<path d="M59.428 24.3096C59.9413 24.3096 60.378 24.1196 60.738 23.7396C61.1046 23.353 61.288 22.8496 61.288 22.2296C61.288 21.603 61.1046 21.1096 60.738 20.7496C60.378 20.3896 59.9413 20.2096 59.428 20.2096C58.9213 20.2096 58.4846 20.3963 58.118 20.7696C57.758 21.143 57.578 21.6396 57.578 22.2596C57.578 22.873 57.758 23.3696 58.118 23.7496C58.4846 24.123 58.9213 24.3096 59.428 24.3096ZM59.608 19.4196C60.3613 19.4196 60.9846 19.6796 61.478 20.1996C61.978 20.713 62.228 21.3896 62.228 22.2296C62.228 23.063 61.978 23.7496 61.478 24.2896C60.978 24.823 60.3546 25.0896 59.608 25.0896C59.1413 25.0896 58.7313 24.9796 58.378 24.7596C58.0313 24.533 57.7646 24.2396 57.578 23.8796V24.9996H56.668V17.5996H57.578V20.6096C57.7646 20.2563 58.0313 19.9696 58.378 19.7496C58.7313 19.5296 59.1413 19.4196 59.608 19.4196Z" fill="white"/>
<path d="M63.1672 21.0596C63.1672 20.5996 63.3572 20.213 63.7372 19.8996C64.1238 19.5796 64.6205 19.4196 65.2272 19.4196C65.8405 19.4196 66.3205 19.5763 66.6672 19.8896C67.0138 20.1963 67.2038 20.6196 67.2372 21.1596H66.2972C66.2838 20.853 66.1805 20.6063 65.9872 20.4196C65.7938 20.233 65.5238 20.1396 65.1772 20.1396C64.8372 20.1396 64.5672 20.223 64.3672 20.3896C64.1738 20.5496 64.0772 20.7596 64.0772 21.0196C64.0772 21.273 64.1872 21.4696 64.4072 21.6096C64.6338 21.7496 64.9038 21.853 65.2172 21.9196C65.5372 21.9796 65.8538 22.053 66.1672 22.1396C66.4872 22.2196 66.7572 22.3763 66.9772 22.6096C67.2038 22.8363 67.3172 23.163 67.3172 23.5896C67.3172 24.0096 67.1238 24.3663 66.7372 24.6596C66.3572 24.9463 65.8605 25.0896 65.2472 25.0896C64.6338 25.0896 64.1405 24.9363 63.7672 24.6296C63.4005 24.323 63.2005 23.8996 63.1672 23.3596H64.1072C64.1205 23.6663 64.2272 23.913 64.4272 24.0996C64.6338 24.2796 64.9138 24.3696 65.2672 24.3696C65.6272 24.3696 65.9072 24.293 66.1072 24.1396C66.3138 23.9863 66.4172 23.793 66.4172 23.5596C66.4172 23.3196 66.3372 23.1296 66.1772 22.9896C66.0172 22.8496 65.8172 22.753 65.5772 22.6996C65.3372 22.6463 65.0738 22.583 64.7872 22.5096C64.5072 22.4363 64.2472 22.3596 64.0072 22.2796C63.7672 22.193 63.5672 22.0463 63.4072 21.8396C63.2472 21.633 63.1672 21.373 63.1672 21.0596Z" fill="white"/>
<path d="M69.5308 18.4496C69.4108 18.5696 69.2642 18.6296 69.0908 18.6296C68.9175 18.6296 68.7709 18.5696 68.6509 18.4496C68.5375 18.3296 68.4809 18.183 68.4809 18.0096C68.4809 17.8363 68.5408 17.6896 68.6609 17.5696C68.7809 17.4496 68.9242 17.3896 69.0908 17.3896C69.2642 17.3896 69.4108 17.4496 69.5308 17.5696C69.6509 17.6896 69.7108 17.8363 69.7108 18.0096C69.7108 18.183 69.6509 18.3296 69.5308 18.4496ZM68.6308 24.9996V19.5096H69.5408V24.9996H68.6308Z" fill="white"/>
<path d="M72.843 24.2596H73.593V24.9996H72.673C71.7196 24.9996 71.243 24.5296 71.243 23.5896V20.2496H70.533V19.5096H71.243V18.1496H72.163V19.5096H73.583V20.2496H72.163V23.5896C72.163 23.8363 72.213 24.0096 72.313 24.1096C72.413 24.2096 72.5896 24.2596 72.843 24.2596Z" fill="white"/>
<path d="M76.8976 25.0896C76.111 25.0896 75.471 24.8296 74.9776 24.3096C74.4843 23.7896 74.2376 23.103 74.2376 22.2496C74.2376 21.3963 74.4876 20.713 74.9876 20.1996C75.4876 19.6796 76.1343 19.4196 76.9276 19.4196C77.7276 19.4196 78.3676 19.6663 78.8476 20.1596C79.3343 20.6463 79.5776 21.2696 79.5776 22.0296C79.5776 22.223 79.5643 22.403 79.5376 22.5696H75.1676C75.1943 23.1163 75.3643 23.5496 75.6776 23.8696C75.9976 24.183 76.4043 24.3396 76.8976 24.3396C77.271 24.3396 77.5843 24.2563 77.8376 24.0896C78.0976 23.923 78.2876 23.703 78.4076 23.4296H79.3876C79.2143 23.9096 78.9143 24.3063 78.4876 24.6196C78.0676 24.933 77.5376 25.0896 76.8976 25.0896ZM78.6276 21.9096C78.621 21.383 78.4543 20.963 78.1276 20.6496C77.801 20.3296 77.3943 20.1696 76.9076 20.1696C76.4276 20.1696 76.0276 20.3263 75.7076 20.6396C75.3876 20.9463 75.211 21.3696 75.1776 21.9096H78.6276Z" fill="white"/>
<defs>
<clipPath id="clip0_1963_788">
<rect width="5" height="5" fill="white" transform="translate(21 7)"/>
</clipPath>
</defs>
</svg>
