<svg width="73" height="27" viewBox="0 0 73 27" fill="none" xmlns="http://www.w3.org/2000/svg">
<rect width="73" height="27" rx="4" fill="white"/>
<path d="M19.1837 17.3776C18.2143 18.1531 16.8571 18.7347 15.5 18.7347C12.398 18.7347 10.2653 16.4082 10.2653 13.3061C10.2653 10.2041 12.398 8.07143 15.5 8.07143C16.8571 8.07143 18.2143 8.45918 19.1837 9.42857L19.7653 10.0102L22.8673 7.10204L22.0918 6.5204C20.3469 4.96938 18.0204 4 15.5 4C10.0714 4 6 8.07143 6 13.5C6 18.9286 10.0714 23 15.5 23C18.0204 23 20.3469 22.0306 22.0918 20.4796L22.8673 19.898L19.7653 16.7959L19.1837 17.3776Z" fill="#17313B"/>
<path d="M15.3061 16.6025C17.0194 16.6025 18.4082 15.2137 18.4082 13.5005C18.4082 11.7873 17.0194 10.3984 15.3061 10.3984C13.5929 10.3984 12.2041 11.7873 12.2041 13.5005C12.2041 15.2137 13.5929 16.6025 15.3061 16.6025Z" fill="#EF4335"/>
<path d="M51.48 9.90393H46.12V13.0879C46.344 12.7893 46.6746 12.5386 47.112 12.3359C47.56 12.1333 48.0346 12.0319 48.536 12.0319C49.432 12.0319 50.1573 12.2239 50.712 12.6079C51.2773 12.9919 51.6773 13.4773 51.912 14.0639C52.1573 14.6506 52.28 15.2693 52.28 15.9199C52.28 16.7093 52.1253 17.4133 51.816 18.0319C51.5173 18.6399 51.064 19.1199 50.456 19.4719C49.8586 19.8239 49.1226 19.9999 48.248 19.9999C47.0853 19.9999 46.152 19.7119 45.448 19.1359C44.744 18.5599 44.3226 17.7973 44.184 16.8479H45.96C46.0773 17.3493 46.3386 17.7493 46.744 18.0479C47.1493 18.3359 47.656 18.4799 48.264 18.4799C49.0213 18.4799 49.5866 18.2506 49.96 17.7919C50.344 17.3333 50.536 16.7253 50.536 15.9679C50.536 15.1999 50.344 14.6133 49.96 14.2079C49.576 13.7919 49.0106 13.5839 48.264 13.5839C47.7413 13.5839 47.2986 13.7173 46.936 13.9839C46.584 14.2399 46.328 14.5919 46.168 15.0399H44.44V8.30393H51.48V9.90393Z" fill="#555555"/>
<path d="M55.1547 20.1119C54.824 20.1119 54.5467 19.9999 54.3227 19.7759C54.0987 19.5519 53.9867 19.2746 53.9867 18.9439C53.9867 18.6133 54.0987 18.3359 54.3227 18.1119C54.5467 17.8879 54.824 17.7759 55.1547 17.7759C55.4747 17.7759 55.7467 17.8879 55.9707 18.1119C56.1947 18.3359 56.3067 18.6133 56.3067 18.9439C56.3067 19.2746 56.1947 19.5519 55.9707 19.7759C55.7467 19.9999 55.4747 20.1119 55.1547 20.1119Z" fill="#555555"/>
<path d="M58.0381 14.0159C58.0381 12.1706 58.3474 10.7306 58.9661 9.69593C59.5954 8.6506 60.6728 8.12793 62.1981 8.12793C63.7234 8.12793 64.7954 8.6506 65.4141 9.69593C66.0434 10.7306 66.3581 12.1706 66.3581 14.0159C66.3581 15.8826 66.0434 17.3439 65.4141 18.3999C64.7954 19.4453 63.7234 19.9679 62.1981 19.9679C60.6728 19.9679 59.5954 19.4453 58.9661 18.3999C58.3474 17.3439 58.0381 15.8826 58.0381 14.0159ZM64.5661 14.0159C64.5661 13.1519 64.5074 12.4213 64.3901 11.8239C64.2834 11.2266 64.0594 10.7413 63.7181 10.3679C63.3768 9.98393 62.8701 9.79193 62.1981 9.79193C61.5261 9.79193 61.0194 9.98393 60.6781 10.3679C60.3368 10.7413 60.1074 11.2266 59.9901 11.8239C59.8834 12.4213 59.8301 13.1519 59.8301 14.0159C59.8301 14.9119 59.8834 15.6639 59.9901 16.2719C60.0968 16.8799 60.3208 17.3706 60.6621 17.7439C61.0141 18.1173 61.5261 18.3039 62.1981 18.3039C62.8701 18.3039 63.3768 18.1173 63.7181 17.7439C64.0701 17.3706 64.2994 16.8799 64.4061 16.2719C64.5128 15.6639 64.5661 14.9119 64.5661 14.0159Z" fill="#555555"/>
<path fill-rule="evenodd" clip-rule="evenodd" d="M33.5 6.625L35.6234 10.9434L40.375 11.6367L36.9367 15.001L37.7478 19.75L33.5 17.5088L29.2522 19.75L30.0633 15.001L26.625 11.6367L31.3766 10.9434L33.5 6.625Z" fill="#FFC107"/>
</svg>
