<svg width="73" height="27" viewBox="0 0 73 27" fill="none" xmlns="http://www.w3.org/2000/svg">
<rect width="73" height="27" rx="4" fill="white"/>
<path d="M21.8521 11.9169H13.5396V15.4794H18.25C17.498 17.8544 15.6375 18.6461 13.5 18.6461C12.6724 18.6472 11.8566 18.4486 11.1221 18.0672C10.3875 17.6858 9.7558 17.1328 9.28052 16.4552C8.80524 15.7776 8.50042 14.9953 8.39193 14.1748C8.28343 13.3543 8.37446 12.5197 8.6573 11.7418C8.94014 10.964 9.40643 10.2658 10.0166 9.70662C10.6268 9.1474 11.3629 8.74363 12.1624 8.52955C12.9619 8.31547 13.8013 8.29741 14.6092 8.47689C15.4172 8.65637 16.17 9.0281 16.8037 9.56054L19.3924 7.09529C18.35 6.13614 17.0892 5.44584 15.7196 5.08427C14.3499 4.72271 12.9127 4.7008 11.5327 5.02046C10.1527 5.34012 8.8715 5.99169 7.80031 6.91863C6.72913 7.84557 5.90029 9.01988 5.38573 10.3397C4.87116 11.6595 4.68641 13.0849 4.84749 14.4923C5.00858 15.8997 5.51064 17.2465 6.31011 18.4159C7.10959 19.5853 8.18233 20.542 9.43526 21.2029C10.6882 21.8638 12.0835 22.209 13.5 22.2086C18.3019 22.2086 22.6438 19.0419 21.8521 11.9169Z" fill="#EB2F00"/>
<path d="M51.48 9.90393H46.12V13.0879C46.344 12.7893 46.6746 12.5386 47.112 12.3359C47.56 12.1333 48.0346 12.0319 48.536 12.0319C49.432 12.0319 50.1573 12.2239 50.712 12.6079C51.2773 12.9919 51.6773 13.4773 51.912 14.0639C52.1573 14.6506 52.28 15.2693 52.28 15.9199C52.28 16.7093 52.1253 17.4133 51.816 18.0319C51.5173 18.6399 51.064 19.1199 50.456 19.4719C49.8586 19.8239 49.1226 19.9999 48.248 19.9999C47.0853 19.9999 46.152 19.7119 45.448 19.1359C44.744 18.5599 44.3226 17.7973 44.184 16.8479H45.96C46.0773 17.3493 46.3386 17.7493 46.744 18.0479C47.1493 18.3359 47.656 18.4799 48.264 18.4799C49.0213 18.4799 49.5866 18.2506 49.96 17.7919C50.344 17.3333 50.536 16.7253 50.536 15.9679C50.536 15.1999 50.344 14.6133 49.96 14.2079C49.576 13.7919 49.0106 13.5839 48.264 13.5839C47.7413 13.5839 47.2986 13.7173 46.936 13.9839C46.584 14.2399 46.328 14.5919 46.168 15.0399H44.44V8.30393H51.48V9.90393Z" fill="#555555"/>
<path d="M55.1547 20.1119C54.824 20.1119 54.5467 19.9999 54.3227 19.7759C54.0987 19.5519 53.9867 19.2746 53.9867 18.9439C53.9867 18.6133 54.0987 18.3359 54.3227 18.1119C54.5467 17.8879 54.824 17.7759 55.1547 17.7759C55.4747 17.7759 55.7467 17.8879 55.9707 18.1119C56.1947 18.3359 56.3067 18.6133 56.3067 18.9439C56.3067 19.2746 56.1947 19.5519 55.9707 19.7759C55.7467 19.9999 55.4747 20.1119 55.1547 20.1119Z" fill="#555555"/>
<path d="M58.0381 14.0159C58.0381 12.1706 58.3474 10.7306 58.9661 9.69593C59.5954 8.6506 60.6728 8.12793 62.1981 8.12793C63.7234 8.12793 64.7954 8.6506 65.4141 9.69593C66.0434 10.7306 66.3581 12.1706 66.3581 14.0159C66.3581 15.8826 66.0434 17.3439 65.4141 18.3999C64.7954 19.4453 63.7234 19.9679 62.1981 19.9679C60.6728 19.9679 59.5954 19.4453 58.9661 18.3999C58.3474 17.3439 58.0381 15.8826 58.0381 14.0159ZM64.5661 14.0159C64.5661 13.1519 64.5074 12.4213 64.3901 11.8239C64.2834 11.2266 64.0594 10.7413 63.7181 10.3679C63.3768 9.98393 62.8701 9.79193 62.1981 9.79193C61.5261 9.79193 61.0194 9.98393 60.6781 10.3679C60.3368 10.7413 60.1074 11.2266 59.9901 11.8239C59.8834 12.4213 59.8301 13.1519 59.8301 14.0159C59.8301 14.9119 59.8834 15.6639 59.9901 16.2719C60.0968 16.8799 60.3208 17.3706 60.6621 17.7439C61.0141 18.1173 61.5261 18.3039 62.1981 18.3039C62.8701 18.3039 63.3768 18.1173 63.7181 17.7439C64.0701 17.3706 64.2994 16.8799 64.4061 16.2719C64.5128 15.6639 64.5661 14.9119 64.5661 14.0159Z" fill="#555555"/>
<path fill-rule="evenodd" clip-rule="evenodd" d="M33.5 6.625L35.6234 10.9434L40.375 11.6367L36.9367 15.001L37.7478 19.75L33.5 17.5088L29.2522 19.75L30.0633 15.001L26.625 11.6367L31.3766 10.9434L33.5 6.625Z" fill="#FFC107"/>
</svg>
