<svg width="24" height="25" viewBox="0 0 24 25" fill="none" xmlns="http://www.w3.org/2000/svg">
<g clip-path="url(#clip0_202_1401)">
<path d="M11.9997 0.190142C17.276 0.190142 21.525 4.48586 21.525 9.76213C21.5717 12.1434 20.6845 14.4314 19.0503 16.159L12.42 23.8633C12.42 23.91 12.42 23.91 12.3733 23.91C12.1398 24.1434 11.7663 24.0968 11.5328 23.8633L4.90244 16.159C3.31489 14.4314 2.42773 12.1434 2.42773 9.76213C2.42773 4.48586 6.72345 0.190142 11.9997 0.190142ZM18.1631 15.4119C21.1048 12.1901 21.1048 7.28742 18.1631 4.11232C15.0347 0.70376 9.75847 0.470297 6.34991 3.5987C2.94135 6.72711 2.70789 12.0034 5.83629 15.4119L11.9997 22.5559L18.1631 15.4119ZM11.9997 5.55979C14.2877 5.55979 16.1554 7.4275 16.1554 9.76213C16.1554 12.0501 14.2877 13.9178 11.9997 13.9178C9.66509 13.9178 7.79738 12.0501 7.79738 9.76213C7.79738 7.4275 9.66509 5.55979 11.9997 5.55979ZM11.9997 12.7038C13.634 12.7038 14.988 11.3964 14.988 9.76213C14.988 8.08119 13.634 6.7738 11.9997 6.7738C10.3188 6.7738 9.01139 8.08119 9.01139 9.76213C9.01139 11.3964 10.3188 12.7038 11.9997 12.7038Z" fill="#F16028"/>
</g>
<defs>
<clipPath id="clip0_202_1401">
<rect width="24" height="24" fill="white" transform="matrix(1 0 0 -1 0 24.1899)"/>
</clipPath>
</defs>
</svg>
