<svg width="24" height="25" viewBox="0 0 24 25" fill="none" xmlns="http://www.w3.org/2000/svg">
<g clip-path="url(#clip0_202_1409)">
<path d="M18.9567 15.3217L21.7116 18.1233C22.2252 18.5902 22.5054 19.1972 22.5054 19.8509C22.5054 20.4579 22.2252 21.0649 21.7116 21.5785C21.5248 21.812 21.2914 21.9987 21.0579 22.2322C20.7311 22.5124 20.4509 22.8392 20.1707 23.1194V23.1661C19.377 24.0065 18.4431 24.4268 17.2758 24.4268H16.9489C15.2213 24.2867 13.6805 23.633 12.5132 23.0727C9.47813 21.6252 6.81665 19.524 4.57541 16.9092C2.7544 14.7147 1.54039 12.6602 0.746614 10.4657C0.419766 9.57851 -0.04716 8.22442 0.0929178 6.73026C0.186303 5.79641 0.559844 5.04932 1.16685 4.39563L2.89447 2.668V2.62131C3.40809 2.15438 4.0151 1.92092 4.6221 1.92092C5.2291 1.92092 5.83611 2.15438 6.30303 2.62131L7.28358 3.60185L7.75051 4.06878L9.10459 5.42286C10.1785 6.4968 10.1785 7.85088 9.10459 8.92481L8.68436 9.34505C8.31082 9.71859 7.93728 10.1388 7.51704 10.5124C7.84389 11.1661 8.26412 11.8664 8.87113 12.6602C10.1785 14.2478 11.5326 15.5085 13.0268 16.4423C13.1668 16.5357 13.3536 16.6291 13.5404 16.7225C13.6338 16.7692 13.7739 16.8159 13.9139 16.9092L15.5015 15.3217C16.0151 14.8081 16.6221 14.5279 17.2291 14.5279C17.8828 14.5279 18.4431 14.8081 18.9567 15.3217ZM20.7311 20.6447C21.2447 20.0843 21.2447 19.5707 20.7311 19.0571L17.9762 16.2556H17.9295C17.7894 16.1155 17.556 15.882 17.2291 15.882C16.9023 15.882 16.6221 16.1155 16.482 16.2556L14.7544 17.9832C14.661 18.0766 14.3809 18.3567 13.9606 18.3567C13.8205 18.3567 13.6338 18.31 13.4937 18.2166C13.447 18.2166 13.447 18.2166 13.4003 18.1699C13.2602 18.0766 13.0735 18.0299 12.9334 17.9365C12.6999 17.7964 12.5132 17.703 12.2797 17.5629C10.6921 16.5357 9.19798 15.2283 7.7972 13.5007C7.05012 12.5201 6.5365 11.7264 6.16296 10.8392V10.7925C6.06957 10.5124 5.97619 10.0921 6.44311 9.67189V9.6252C6.91004 9.25166 7.28358 8.83143 7.70381 8.41119L8.17074 7.94427C8.68436 7.43065 8.68436 6.91703 8.17074 6.40341L6.76996 5.00263L6.30303 4.53571C5.97619 4.20886 5.69603 3.9287 5.36918 3.64855V3.60185C5.2291 3.46178 4.94895 3.27501 4.6221 3.27501C4.38864 3.27501 4.10848 3.36839 3.87502 3.60185L2.14739 5.32948C1.72716 5.74971 1.4937 6.26333 1.447 6.82364C1.40031 7.7575 1.54039 8.73804 2.00731 9.99874C2.80109 12.0532 3.92171 13.9676 5.64934 16.0221C7.75051 18.5435 10.2252 20.5046 13.0735 21.8587C14.1474 22.3723 15.5482 22.9793 17.0423 23.0727H17.2758C18.0696 23.0727 18.6299 22.7925 19.1435 22.2789C19.4704 21.9054 19.7972 21.5785 20.124 21.2517L20.7311 20.6447ZM12.9801 6.21664C12.6065 6.12325 12.3731 5.79641 12.4198 5.42286C12.4665 5.04932 12.84 4.81586 13.2135 4.86255C14.8011 5.14271 16.2486 5.88979 17.4159 7.05711C18.5832 8.22442 19.3303 9.67189 19.6104 11.2594C19.6571 11.633 19.4237 12.0065 19.0501 12.0532H18.91C18.5832 12.0532 18.303 11.8198 18.2563 11.4929C18.0229 10.1855 17.4159 8.9715 16.4353 7.99096C15.5015 7.05711 14.2875 6.40341 12.9801 6.21664ZM23.9061 11.0727C23.9995 11.4462 23.7194 11.7731 23.3458 11.8198C23.3458 11.8198 23.2991 11.8664 23.2525 11.8664C22.9256 11.8664 22.6454 11.633 22.5988 11.3061C22.1785 8.92481 21.0579 6.77695 19.377 5.09602C17.6493 3.36839 15.5015 2.24777 13.1668 1.87423C12.7933 1.82753 12.5598 1.45399 12.6065 1.08045C12.6532 0.706913 13.0268 0.47345 13.4003 0.520142C16.0151 0.987068 18.4431 2.20108 20.3108 4.11547C22.2252 6.02987 23.4859 8.41119 23.9061 11.0727Z" fill="#F16028"/>
</g>
<defs>
<clipPath id="clip0_202_1409">
<rect width="24" height="24" fill="white" transform="matrix(1 0 0 -1 0 24.52)"/>
</clipPath>
</defs>
</svg>
